<svg xmlns="http://www.w3.org/2000/svg" viewBox="0 0 18.65 34"><g id="Layer_2" data-name="Layer 2"><path d="M9.25,15.15l.7-.65-.36-.59-.69.72Zm.46-.53L9.33,15l-.14-.34,0-.05.38-.4Z" transform="translate(-7.67 0)" style="fill:#fff"/><polygon points="1.72 14.69 1.84 14.58 1.81 14.49 1.69 14.62 1.72 14.69" style="fill:#fff"/><polygon points="4.55 13.61 4.33 13.29 3.91 13.7 4.15 14.03 4.55 13.61" style="fill:#fff"/><path d="M8.45,14.6l.77,1.05L9.91,15l.57-.55-.58-.9,1.16-1.07-.14-.05L9.74,13.51l-.61-1.1-.19.13,1.23,2-.95.88-.53-.8.81-.85-.69-1.11-.26.25.6.92Z" transform="translate(-7.67 0)" style="fill:#fff"/><path d="M23.23,11.74l.29-.22-.06-.24v-.06l-.09,0,0,0h0l0,0-.06-.08-.21.16Z" transform="translate(-7.67 0)" style="fill:#fff"/><path d="M23.12,12.3l.51-.38c0-.07,0-.14-.06-.23l-.4.3-.4-.74.46-.36.05.07.12.17,0,.06h0c-.06-.25-.1-.44-.14-.59l-.83.72Z" transform="translate(-7.67 0)" style="fill:#fff"/><path d="M22.93,12.9l.82-.62-.06-.19-.61.45-.83-1.24,1-.88c0-.09,0-.17-.05-.25l-1.3,1.14Z" transform="translate(-7.67 0)" style="fill:#fff"/><path d="M14.79,12.51l-.26-.08-.4.31-.32-.5a1.27,1.27,0,0,0-.34,0l.57.92Z" transform="translate(-7.67 0)" style="fill:#fff"/><path d="M12.07,14.51l1.06,2.13,2.58-2.21-.51-.73L16,13l.64,1,.6-.44L16.87,13l-.37-.07-.07,0,.4.63h0l-.14.09-.49-.76-.26-.06-1,.88.47.77-2.19,1.81-.91-1.81.72-.83-.62-1.15-.19.09.61,1.08Z" transform="translate(-7.67 0)" style="fill:#fff"/><path d="M18.24,8.59c0,.21,0,.42,0,.63L18.51,9Z" transform="translate(-7.67 0)" style="fill:#fff"/><path d="M8.08,14l.3-.3-.2-.28a4.27,4.27,0,0,0-.2.42Z" transform="translate(-7.67 0)" style="fill:#fff"/><path d="M14.34,12.37l-.3-.09.13.22Z" transform="translate(-7.67 0)" style="fill:#fff"/><polygon points="11.58 14.06 11.37 14.23 11.46 14.37 11.69 14.19 11.58 14.06" style="fill:#fff"/><path d="M19,15l.93-.73-.5-.74-.46.42v.15l.29-.25.32.39-.43.35-.07,0-.23-.35a.64.64,0,0,1-.13-.12l-.14.13Z" transform="translate(-7.67 0)" style="fill:#fff"/><path d="M21.26,12.4l-1.15,1,.48.73L18.79,16l-.92-1.69.56-.51-.19-.19-.76.79,1.1,2.21L21,14.21l-.55-.78.76-.75.75,1.1.59-.51-1.08-1.59-1.88,1.71.61.88-1.2,1-.6-1,.26-.22-.09-.11-.47.42.76,1.39,1.55-1.59-.49-.74,1.39-1.23.82,1.08h0l-.13.1Z" transform="translate(-7.67 0)" style="fill:#fff"/><path d="M19.42,9.26l-1.09,1c0,.11,0,.22,0,.33l1-.86,1.05,1.62L18.8,12.73l-.06-.09,0,.18,0,.1,1.87-1.56Z" transform="translate(-7.67 0)" style="fill:#fff"/><path d="M20.2,11.34,19.33,10l-.93.81c0,.08,0,.17,0,.25l.79-.66.58,1-.73.79-.47-.85.47-.4.21.44-.15.07L19,11.2l-.21.17.3.53.49-.53-.43-.72-.71.6c.06.35.12.67.18.95l.19.28Z" transform="translate(-7.67 0)" style="fill:#fff"/><polygon points="6.47 14.39 6.4 14.29 6.2 14.43 6.26 14.53 6.47 14.39" style="fill:#fff"/><path d="M10.4,12.22l-.15,0-.23.27-.15-.29H9.8l-.14,0,.27.5Z" transform="translate(-7.67 0)" style="fill:#fff"/><path d="M10.75,12.37l-.18-.08L9.89,13l-.39-.72a.92.92,0,0,0-.23.09l.51.92Z" transform="translate(-7.67 0)" style="fill:#fff"/><path d="M13.78,15.1l.91-.65-.45-.69-.89.69Zm.61-.67-.45.28-.07,0-.23-.37.47-.32Z" transform="translate(-7.67 0)" style="fill:#fff"/><path d="M15,12.56l-1,.83-.72-1.16-.13,0-.13,0,.74,1.24-.86.9.61,1.13-.15.08-.66-1.24.85-.89-.69-1.18a1.39,1.39,0,0,0-.29.1l.67,1.23-.73.83L13.29,16l1.91-1.59-.47-.77,1-.88-.26-.06-1.12,1,.56.83-1.19.84-.61-.92,1.08-.83,1.09-.93Z" transform="translate(-7.67 0)" style="fill:#fff"/><path d="M14.75,17.66,15.52,19,17,17.54l-.79-1.32Zm1,.92-.08.07-.64-1,1-1.07.71,1Z" transform="translate(-7.67 0)" style="fill:#fff"/><path d="M15.2,17.63l.46.76.87-.84L16,16.8Zm.54.31-.2-.33,0-.06.42-.38.21.41Z" transform="translate(-7.67 0)" style="fill:#fff"/><path d="M14.24,17.58l1.09,2.12,2.24-2.19-1.24-2Zm1.35,1.6-.08,0-.06,0-.91-1.6L16.25,16l1,1.61Z" transform="translate(-7.67 0)" style="fill:#fff"/><polygon points="8.05 17.58 8.11 17.68 8.26 17.54 8.21 17.44 8.05 17.58" style="fill:#fff"/><path d="M13.65,17.56l1.47,2.82,2.93-2.87-1.54-2.7Zm1.72,2.34-.08.08L14,17.54l2.32-2.34,1.42,2.34Z" transform="translate(-7.67 0)" style="fill:#fff"/><path d="M26.07,4.85c-.09-.35,0-.46-.08-.67C25.8,3.58,24.48,4,23.22,3c-.13-.11-.4-.42-.64-.46-.73-.11-.64-.07-.88-.3S21.69,1,21.46,1c-1.25,0-.79,1-.95,1-.87.08-1.32-.45-2.19-2-.12-.2-.37.7-.29,1a5,5,0,0,0,.48,1.17,4.67,4.67,0,0,0,.65.89c.07.09.31.23.37.39.17.47-.36,1-.42,1.16a8,8,0,0,0-.83,3.21,4.15,4.15,0,0,0,0,.49l.48.66-.47.46a1.64,1.64,0,0,0,0,.23L19,9l-.47-.63.14-.1L19.2,9l-.91.92c0,.06,0,.12,0,.18L19.46,9l1.43,2.4-2.05,1.7.06.26,4-3.65.1-.08.11.12-.1.09-4.05,3.71,0,.16.44-.4,2.07-1.88,1.27,1.87-.85.72-.74-1.09-.52.52.55.78-2.65,2.65-1.25-2.53.83-.86a1,1,0,0,0-.15-.11,2.19,2.19,0,0,0-.29-.17l.19.28-.88.89,1.52,2.74,2.95-2.93-.59-.81h0l.13-.09.67.92-3.2,3.19-1.69-3,.88-.88-.24-.36L17.1,13l.33.51-.86.64-.63-.95-.52.49.51.74L13.08,16.9l-1.21-2.41.77-.87-.51-.9-1,1,.52.89-.64.76-.9,1,1.29,1.84L12.58,17l-.94-1.91-.93,1.14.75,1.21.58-.55-.52-1-.29.36.32.51-.15.09L11,16.21l.52-.65.7,1.34-.82.77-.93-1.49,1.18-1.43L12.78,17l-1.43,1.41L9.87,16.31l1-1.08.57-.67-.53-.9L12,12.61l-.28,0h0l-1.13,1,.52.89-.62.64-1,1L11.17,19l2.07-1.87,2.94-2.8-.42-.62.14-.1.49.74-3,2.9-2.23,2L9.25,16.14l1.12-1.07.53-.54-.52-.91,1.12-1-.25,0-1.13,1,.57.89-.67.65-.83.76-.95-1.31.7-.79L8.44,13a1.8,1.8,0,0,0-.16.21l.32.46-.54.55L7.91,14a4.41,4.41,0,0,0-.2.78,9.16,9.16,0,0,0,.25,3,9.68,9.68,0,0,0,.71,2.76c.43.81.66.75,1.22,1.8a8.2,8.2,0,0,1,.76,2A7.73,7.73,0,0,1,10.81,26a7.14,7.14,0,0,1-.08,1.8c-.14.77-.41,1.28-.27,1.37s.37-.35.84-.37.64.3.76.21-.31-.93-.5-1.8a9.65,9.65,0,0,1,.16-2.43c.14-1.28.19-1.73.38-1.76s.31.24.43.43A3.85,3.85,0,0,1,13,24.82c.16.76.2.93.37,1.12s.25.2.34.39c.17.34,0,.56,0,.88.14.59,1.09,1,1.26.79s-.18-.62-.1-.67.5.5.56.47a3.81,3.81,0,0,0-.51-1.06c-.23-.37-.25-.37-.42-.67a8.09,8.09,0,0,1-.59-1.21c0-.1-.44-1.14-.29-1.22s.32.46.91,1a2.8,2.8,0,0,0,2.06.89c.4-.06.63-.28.88-.14s.19.3.39.7.37.46.56.81c.34.65,0,.92.28,1.62.22.54.48.49.72,1a3.11,3.11,0,0,1,.09,1.6c-.09,1.42,0,2.82.21,2.85s.19-.42.49-.48.68.57.83.5-.12-.91-.34-2.18c-.17-.92-.11-1-.34-2.35-.08-.48-.11-.57-.21-1.17s-.11-.73-.25-1.55a3.67,3.67,0,0,0-.07-.41c-.19-1.29-.05-1.5,0-1.6s.29-.24.42-.18,0,.68,0,1.69a13.34,13.34,0,0,0,.3,1.78c.09.45.1.43.17.77.15.81.12,1,.23,1.68a18.27,18.27,0,0,0,.46,2s.18-.72.42-.75.54.68.59.66a21.91,21.91,0,0,1-.72-2.3A10,10,0,0,1,21.62,28a9.44,9.44,0,0,1,.31-3.2c.26-.74.38-.59,1.2-2.2a12.18,12.18,0,0,0,.92-2.09,14.37,14.37,0,0,0,.42-2.64c.09-.82.14-1.23.14-1.6a11.13,11.13,0,0,0-.48-2.75c-.15-.56-.24-.84-.33-1.11l-.92.69-1.17-1.86L23.19,10c0-.22-.09-.49-.2-1-.37-1.55-.33-1.84-.12-2.2.11-.18.05-.36.88-.26a3.94,3.94,0,0,0,1.9-.3c.43-.27.07-.2.39-.59.37,0,.26-.31.28-.38S26.16,5.16,26.07,4.85ZM19.52,8.58l.05.05-.1.1-.1-.13M11.8,14.28l-.43-.6L12,13l.41.59-.56.59Zm1,8.19-1.41-2.91,1.79-1.68.08-.08,1.49,3.05Zm2.31-1.81-1.6-3.08,0-.06,3.11-3,1.71,3ZM21.39,9.11l.07.15-.11.05-.07-.14ZM21,9l.4.64.41-.36h0l.11.12-.55.49-.51-.8Zm-.61-.17.84,1.51.92-1h0l.11.11L21.18,10.6l-1-1.8.09,0h0m2.32.85L21.1,11.15l-1.44-2.3.19-.21.12.12-.1.1,1.26,2,1.39-1.39Z" transform="translate(-7.67 0)" style="fill:#fff"/><path d="M11.56,19.6l1.25,2.61,1.7-1.4-1.34-2.73Zm1.36,2L12,19.7l1-1,.08-.08,1.07,2Z" transform="translate(-7.67 0)" style="fill:#fff"/><path d="M12.15,19.73,13,21.38l.88-.73L13,18.93Zm.95,1.17-.62-1,0-.06.45-.47.63,1.19Z" transform="translate(-7.67 0)" style="fill:#fff"/><polygon points="4.98 19.82 5.47 20.64 5.65 20.47 5.19 19.6 4.98 19.82" style="fill:#fff"/></g></svg>